<svg xmlns="http://www.w3.org/2000/svg" xmlns:xlink="http://www.w3.org/1999/xlink" version="1.1" x="0px" y="0px" viewBox="0 0 64 110" style="enable-background:new 0 0 64 88;" xml:space="preserve"><path d="M63,0H1C0.448,0,0,0.448,0,1v86c0,0.552,0.448,1,1,1h62c0.552,0,1-0.448,1-1V1C64,0.448,63.552,0,63,0z M62,86H2V2h60V86z"/><path d="M12.659,71.948c0.873-1.074,1.677-2.551,2.753-3.432c0.484-0.396-0.244,0.464-0.362,0.699  c-0.288,0.574-0.6,1.307-0.817,1.911c-0.274,0.762-0.361,1.376-0.297,2.17c0.013,0.155,0.115,0.26,0.272,0.272  c1.084,0.082,0.147-0.06,1.164-0.168c0.177-0.072,0.339-0.172,0.487-0.3c0.825-0.18,1.494-0.025,2.008,0.463  c0.662,0.192,0.732,0.557,1.524,0.518c1.016-0.051,1.721-0.575,2.822-0.599c0.885-0.019,1.774,0.217,2.663,0.241  c2.105,0.056,4.254-0.302,6.348-0.473c0.442-0.036,0.456-0.7,0-0.699c-2.419,0.005-4.803,0.543-7.227,0.393  c-0.907-0.056-1.841-0.279-2.751-0.121c-1.448,0.251-2.041,0.407-3.496-0.178c-0.945-0.379-1.031-0.157-1.943-0.158  c-1.86-0.003-1.023-1.244-0.54-2.429c0.289-0.71,0.481-1.302,0.575-2.058c0.027-0.219-0.27-0.293-0.405-0.168  c-1.002,0.926-1.759,2.157-2.582,3.235c-0.837,1.096-3.116,4.701-4.832,4.16c-0.092-0.029-0.159,0.12-0.067,0.16  C9.706,76.149,11.803,73.002,12.659,71.948z"/><rect x="8" y="79.5" width="12" height="1"/><rect x="44" y="79.5" width="12" height="1"/><path d="M56,8H8v8h48V8z M55,15H9V9h46V15z"/><rect x="20" y="19.5" width="24" height="1"/><rect x="8" y="31.5" width="48" height="1"/><rect x="8" y="39.5" width="48" height="1"/><rect x="8" y="35.5" width="48" height="1"/><rect x="8" y="43.5" width="48" height="1"/><rect x="8" y="51.5" width="48" height="1"/><rect x="8" y="55.5" width="40" height="1"/><rect x="8" y="59.5" width="28" height="1"/><path d="M55.403,73.62c-0.015-0.135-0.118-0.265-0.289-0.288c-0.957-0.128-0.588-0.173-1.486,0.182  c-0.065,0.026-0.114,0.079-0.15,0.141c-1.15,0.168-2.274,0.279-3.327,0.945c-0.139,0.088-0.173,0.259-0.124,0.399  c-0.819-0.057-1.425-0.507-2.172-0.559c0.049,0.003-0.961,0.159-0.694,0.275c-0.759-0.328-0.563-1.829-0.643-2.669  c-0.024-0.256-0.379-0.406-0.522-0.141c-0.346,0.644-0.294,0.5-0.502,1.22c-0.215,0.745,0.078,1.534-0.83,1.071  c-0.677-0.346-0.595-4.487-0.693-5.416c-0.026-0.247-0.419-0.354-0.474-0.064c-0.174,0.924-0.272,1.846-0.394,2.778  c-0.077,0.586-0.47,4.033-1.121,4.153c0.04-0.007,0.031-0.072-0.01-0.071c-0.22,0.007-0.139-0.017-0.335,0.122  c-0.021,0.015-0.038,0.043-0.029,0.07c0.034,0.096,0.067,0.191,0.101,0.287c0.032,0.092,0.166,0.153,0.24,0.063  c1.022-1.245,1.53-3.003,1.711-4.68c0.05,0.451,0.124,0.906,0.177,1.279c0.16,1.116,0.44,2.093,0.908,3.106  c0.086,0.187,0.371,0.163,0.465,0c0.475-0.831,0.599-1.754,0.869-2.641c0.097,0.786,0.228,1.55,0.471,2.338  c0.064,0.207,0.325,0.283,0.483,0.127c0.853-0.839,1.729-0.172,2.697-0.069c1.029,0.109,2.077-0.108,3.101-0.197  c0.401-0.04,0.407-0.673,0-0.634c-0.527,0.048-0.975,0.048-1.437-0.002c0.952-0.329,1.981-0.403,2.979-0.61  c0.534,0.033,1.061,0.039,1.626,0.024c0.34-0.009,0.342-0.528,0-0.53C55.801,73.633,55.602,73.623,55.403,73.62z"/></svg>